<svg class="arrow-circle" width="64px" height="64px" viewBox="0 0 64 64" version="1.1" xmlns="http://www.w3.org/2000/svg" xmlns:xlink="http://www.w3.org/1999/xlink">
    <defs>
        <linearGradient x1="-11.2937927%" y1="-17.6902771%" x2="92.0150757%" y2="91.7816162%" id="linearGradient-1">
            <stop stop-color="#9E6736" offset="0%"></stop>
            <stop stop-color="#CC9A5D" offset="24.7466216%"></stop>
            <stop stop-color="#D5B088" offset="51.813239%"></stop>
            <stop stop-color="#C99451" offset="73.5193201%"></stop>
            <stop stop-color="#90582D" offset="100%"></stop>
        </linearGradient>
        <linearGradient x1="-67.7337455%" y1="31.6349701%" x2="139.489949%" y2="51.6497878%" id="linearGradient-2">
            <stop stop-color="#9E6736" offset="0%"></stop>
            <stop stop-color="#CC9A5D" offset="24.7466216%"></stop>
            <stop stop-color="#D5B088" offset="51.813239%"></stop>
            <stop stop-color="#C99451" offset="73.5193201%"></stop>
            <stop stop-color="#90582D" offset="100%"></stop>
        </linearGradient>
    </defs>
    <g id="MORE-ARROW-FEATURED" stroke="none" stroke-width="1" fill="none" fill-rule="evenodd">
        <path d="M32,64 C49.673112,64 64,49.673112 64,32 C64,14.326888 49.673112,0 32,0 C14.326888,0 0,14.326888 0,32 C0,49.673112 14.326888,64 32,64 Z M32,62 C15.4314575,62 2,48.5685425 2,32 C2,15.4314575 15.4314575,2 32,2 C48.5685425,2 62,15.4314575 62,32 C62,48.5685425 48.5685425,62 32,62 Z" id="circle" fill="url(#linearGradient-1)" fill-rule="nonzero"></path>
        <g id="arrow" transform="translate(11.000000, 17.949128)" fill="url(#linearGradient-2)" fill-rule="nonzero">
            <path d="M20.9200433,1.2784884 C21.2850181,0.863986542 21.9169089,0.823836981 22.3314107,1.18881185 L22.3314107,1.18881185 L36.6827118,13.8253394 L22.4290053,27.5622894 C22.031339,27.9455386 21.3982819,27.9338513 21.0150327,27.536185 C20.6317835,27.1385187 20.6434708,26.5054616 21.0411371,26.1222124 L21.0411371,26.1222124 L32.4554701,15.1213214 L0.728470131,15.1219403 L0.728470131,13.1219403 L32.8574701,13.1213214 L21.0097198,2.68985586 C20.6271027,2.35295599 20.5634604,1.78862484 20.8429959,1.37778121 Z" id="Combined-Shape"></path>
        </g>
    </g>
</svg>